<svg width="512" height="512" viewBox="0 0 512 512" fill="none" xmlns="http://www.w3.org/2000/svg">
<path d="M293.626 155.141C281.533 155.141 269.561 157.519 258.388 162.139C247.216 166.758 237.065 173.53 228.514 182.066C219.965 190.602 213.181 200.736 208.554 211.889C203.927 223.042 201.544 234.996 201.544 247.068C201.544 259.14 203.927 271.094 208.554 282.247C213.181 293.401 219.965 303.535 228.514 312.07C237.065 320.607 247.216 327.378 258.388 331.997C269.561 336.618 281.533 338.995 293.626 338.995C305.718 338.995 317.692 336.618 328.864 331.997C340.037 327.378 350.188 320.607 358.737 312.07C367.288 303.535 374.071 293.401 378.698 282.247C383.327 271.094 385.707 259.14 385.707 247.068C385.707 234.996 383.327 223.042 378.698 211.889C374.071 200.736 367.288 190.602 358.737 182.066C350.188 173.53 340.037 166.758 328.864 162.139C317.692 157.519 305.718 155.141 293.626 155.141Z" fill="#E8BF41"/>
<path d="M383.844 268.99C383.619 268.99 383.388 268.97 383.157 268.922C381.313 268.542 380.129 266.749 380.51 264.909C381.708 259.095 382.313 253.092 382.313 247.068C382.313 198.252 342.531 158.537 293.633 158.537C266.272 158.537 240.857 170.856 223.918 192.351C222.762 193.818 220.619 194.076 219.143 192.914C217.667 191.753 217.415 189.627 218.572 188.147C236.816 165.016 264.17 151.745 293.633 151.745C346.279 151.745 389.116 194.51 389.116 247.068C389.116 253.547 388.463 260.005 387.177 266.274C386.837 267.883 385.422 268.99 383.844 268.99Z" fill="white"/>
<path d="M317.483 188.323C325.136 191.549 332.027 196.221 337.816 201.994L317.483 188.323Z" fill="#E8BF41"/>
<path d="M337.816 205.39C336.946 205.39 336.075 205.057 335.415 204.398C329.843 198.85 323.367 194.49 316.163 191.461C314.435 190.734 313.619 188.737 314.354 187.012C315.082 185.281 317.082 184.486 318.809 185.199C326.823 188.574 334.027 193.417 340.218 199.597C341.551 200.914 341.551 203.074 340.224 204.398C339.558 205.057 338.687 205.39 337.816 205.39Z" fill="#C98400"/>
<path d="M242.286 207.706C254 192.847 272.184 183.312 292.592 183.312L242.286 207.706Z" fill="#E8BF41"/>
<path d="M242.286 211.102C241.551 211.102 240.81 210.864 240.184 210.375C238.708 209.214 238.456 207.081 239.612 205.607C252.49 189.288 271.796 179.923 292.592 179.923C294.469 179.923 295.993 181.444 295.993 183.318C295.993 185.193 294.469 186.714 292.592 186.714C273.891 186.714 256.537 195.128 244.959 209.811C244.293 210.653 243.293 211.102 242.286 211.102Z" fill="#C98400"/>
<path d="M102.674 383.064C80.1157 383.064 61.762 363.505 61.762 339.464C61.762 315.416 80.1157 295.857 102.674 295.857C105.612 295.857 108.633 296.223 111.653 296.95L117.354 298.322L117.531 292.468C118.844 248.514 152.259 214.089 193.619 214.089C222.687 214.089 248.823 231.332 261.816 259.095L265.034 265.955L269.823 260.087C280.177 247.401 295.123 240.127 310.837 240.127C338.898 240.127 362.674 263.428 364.973 293.181L365.415 298.981L371.02 297.398C374.585 296.386 378.143 295.87 381.585 295.87C392.463 295.87 402.701 300.366 410.415 308.536C418.204 316.788 422.49 327.769 422.49 339.477C422.49 363.519 404.136 383.078 381.572 383.078H102.674V383.064Z" fill="#33BBD9"/>
<path d="M193.619 218.836C220.816 218.836 245.299 235.034 257.503 261.106L263.932 274.831L273.517 263.089C282.959 251.516 296.565 244.874 310.837 244.874C336.422 244.874 358.116 266.247 360.224 293.541L361.122 305.14L372.333 301.955C375.463 301.066 378.578 300.617 381.592 300.617C391.143 300.617 400.156 304.584 406.959 311.796C413.912 319.158 417.741 328.985 417.735 339.471C417.735 360.89 401.517 378.317 381.578 378.317H102.68C82.7483 378.317 66.5238 360.89 66.5238 339.471C66.5238 318.051 82.7415 300.624 102.68 300.624C105.245 300.624 107.891 300.95 110.551 301.589L121.946 304.325L122.293 292.631C123.531 251.245 154.857 218.836 193.619 218.836ZM193.619 209.328C149.769 209.328 114.15 246.26 112.776 292.325C109.517 291.544 106.15 291.103 102.68 291.103C77.449 291.103 57 312.754 57 339.457C57 366.167 77.449 387.811 102.68 387.811C105.612 387.811 378.646 387.811 381.585 387.811C406.816 387.811 427.265 366.16 427.265 339.457C427.272 312.747 406.823 291.103 381.599 291.103C377.483 291.103 373.524 291.728 369.728 292.807C367.245 260.657 341.864 235.366 310.844 235.366C292.966 235.366 276.98 243.801 266.136 257.078C252.898 228.806 225.442 209.328 193.619 209.328Z" fill="white"/>
<g filter="url(#filter0_d_424_53)">
<path d="M309.721 360.653H289.313C287.435 360.653 285.912 359.131 285.912 357.257C285.912 355.383 287.435 353.861 289.313 353.861H309.721C311.599 353.861 313.122 355.383 313.122 357.257C313.122 359.131 311.599 360.653 309.721 360.653Z" fill="#E3E3E3"/>
</g>
<g filter="url(#filter1_d_424_53)">
<path d="M262.102 360.653H105.639C103.762 360.653 102.238 359.131 102.238 357.257C102.238 355.383 103.762 353.861 105.639 353.861H262.102C263.98 353.861 265.503 355.383 265.503 357.257C265.503 359.131 263.98 360.653 262.102 360.653Z" fill="#E3E3E3"/>
</g>
<g filter="url(#filter2_d_424_53)">
<path d="M357.34 360.653H330.129C328.252 360.653 326.728 359.131 326.728 357.257C326.728 355.383 328.252 353.861 330.129 353.861H357.34C359.218 353.861 360.742 355.383 360.742 357.257C360.742 359.131 359.218 360.653 357.34 360.653Z" fill="#E3E3E3"/>
</g>
<path d="M380.261 175C379.17 175 378.08 174.583 377.246 173.756C375.585 172.096 375.585 169.395 377.246 167.735L413.733 131.246C415.394 129.585 418.094 129.585 419.754 131.246C421.415 132.907 421.415 135.607 419.754 137.268L383.267 173.756C382.441 174.583 381.351 175 380.261 175Z" fill="#E8BF41"/>
<path d="M404.693 264.512C403.922 263.742 403.446 262.676 403.44 261.501C403.44 259.152 405.35 257.243 407.698 257.243L459.3 257.242C461.649 257.242 463.558 259.151 463.558 261.5C463.558 263.849 461.649 265.758 459.3 265.758L407.698 265.759C406.53 265.759 405.464 265.283 404.693 264.512Z" fill="#E8BF41"/>
<path d="M300.833 136.627C300.062 137.398 298.996 137.874 297.821 137.88C295.472 137.879 293.563 135.97 293.563 133.621L293.562 82.0195C293.562 79.6707 295.471 77.7616 297.82 77.7616C300.169 77.7617 302.078 79.6709 302.078 82.0197L302.079 133.622C302.079 134.79 301.603 135.856 300.833 136.627Z" fill="#E8BF41"/>
<path d="M218.748 164C217.658 164 216.568 163.583 215.733 162.756L179.246 126.269C177.585 124.608 177.585 121.907 179.246 120.246C180.906 118.585 183.607 118.585 185.268 120.246L221.754 156.733C223.415 158.394 223.415 161.095 221.754 162.756C220.928 163.583 219.838 164 218.748 164Z" fill="#E8BF41"/>
<defs>
<filter id="filter0_d_424_53" x="277.912" y="347.861" width="43.2109" height="22.7914" filterUnits="userSpaceOnUse" color-interpolation-filters="sRGB">
<feFlood flood-opacity="0" result="BackgroundImageFix"/>
<feColorMatrix in="SourceAlpha" type="matrix" values="0 0 0 0 0 0 0 0 0 0 0 0 0 0 0 0 0 0 127 0" result="hardAlpha"/>
<feOffset dy="2"/>
<feGaussianBlur stdDeviation="4"/>
<feComposite in2="hardAlpha" operator="out"/>
<feColorMatrix type="matrix" values="0 0 0 0 0 0 0 0 0 0 0 0 0 0 0 0 0 0 0.25 0"/>
<feBlend mode="normal" in2="BackgroundImageFix" result="effect1_dropShadow_424_53"/>
<feBlend mode="normal" in="SourceGraphic" in2="effect1_dropShadow_424_53" result="shape"/>
</filter>
<filter id="filter1_d_424_53" x="94.238" y="347.861" width="179.265" height="22.7914" filterUnits="userSpaceOnUse" color-interpolation-filters="sRGB">
<feFlood flood-opacity="0" result="BackgroundImageFix"/>
<feColorMatrix in="SourceAlpha" type="matrix" values="0 0 0 0 0 0 0 0 0 0 0 0 0 0 0 0 0 0 127 0" result="hardAlpha"/>
<feOffset dy="2"/>
<feGaussianBlur stdDeviation="4"/>
<feComposite in2="hardAlpha" operator="out"/>
<feColorMatrix type="matrix" values="0 0 0 0 0 0 0 0 0 0 0 0 0 0 0 0 0 0 0.25 0"/>
<feBlend mode="normal" in2="BackgroundImageFix" result="effect1_dropShadow_424_53"/>
<feBlend mode="normal" in="SourceGraphic" in2="effect1_dropShadow_424_53" result="shape"/>
</filter>
<filter id="filter2_d_424_53" x="318.728" y="347.861" width="50.0137" height="22.7914" filterUnits="userSpaceOnUse" color-interpolation-filters="sRGB">
<feFlood flood-opacity="0" result="BackgroundImageFix"/>
<feColorMatrix in="SourceAlpha" type="matrix" values="0 0 0 0 0 0 0 0 0 0 0 0 0 0 0 0 0 0 127 0" result="hardAlpha"/>
<feOffset dy="2"/>
<feGaussianBlur stdDeviation="4"/>
<feComposite in2="hardAlpha" operator="out"/>
<feColorMatrix type="matrix" values="0 0 0 0 0 0 0 0 0 0 0 0 0 0 0 0 0 0 0.25 0"/>
<feBlend mode="normal" in2="BackgroundImageFix" result="effect1_dropShadow_424_53"/>
<feBlend mode="normal" in="SourceGraphic" in2="effect1_dropShadow_424_53" result="shape"/>
</filter>
</defs>
</svg>
